<svg width="181" height="152" viewBox="0 0 181 152" fill="none" xmlns="http://www.w3.org/2000/svg">
<g filter="url(#filter0_d_1_2641)">
<line x1="32.7017" y1="12.7734" x2="175.702" y2="12.7734" stroke="#E6E9ED" stroke-dasharray="2 2"/>
<line x1="32.7017" y1="64.7734" x2="175.702" y2="64.7734" stroke="#E6E9ED" stroke-dasharray="2 2"/>
<line x1="32.7017" y1="119.773" x2="175.702" y2="119.773" stroke="#E6E9ED" stroke-dasharray="2 2"/>
<path d="M41.2505 134.486H42.3073V140.725C42.3073 141.282 42.205 141.755 42.0005 142.144C41.7959 142.533 41.5076 142.829 41.1354 143.03C40.7632 143.232 40.3243 143.333 39.8186 143.333C39.3414 143.333 38.9167 143.246 38.5445 143.073C38.1723 142.897 37.8797 142.647 37.6667 142.323C37.4536 141.999 37.3471 141.614 37.3471 141.168H38.3868C38.3868 141.415 38.4479 141.631 38.5701 141.816C38.6951 141.998 38.8655 142.14 39.0814 142.242C39.2973 142.344 39.5431 142.395 39.8186 142.395C40.1226 142.395 40.3811 142.332 40.5942 142.204C40.8073 142.076 40.9692 141.888 41.08 141.641C41.1936 141.391 41.2505 141.086 41.2505 140.725V134.486ZM46.215 143.367C45.8002 143.367 45.4238 143.289 45.0857 143.133C44.7476 142.974 44.4792 142.745 44.2803 142.447C44.0814 142.145 43.982 141.782 43.982 141.356C43.982 140.981 44.0559 140.677 44.2036 140.444C44.3513 140.208 44.5488 140.023 44.7959 139.89C45.0431 139.756 45.3158 139.657 45.6141 139.591C45.9152 139.523 46.2178 139.469 46.5218 139.43C46.9195 139.378 47.2419 139.34 47.4891 139.314C47.7391 139.286 47.9209 139.239 48.0346 139.174C48.151 139.109 48.2093 138.995 48.2093 138.833V138.799C48.2093 138.378 48.0942 138.052 47.8641 137.819C47.6368 137.586 47.2917 137.469 46.8286 137.469C46.3485 137.469 45.9721 137.574 45.6993 137.785C45.4266 137.995 45.2348 138.219 45.124 138.458L44.1695 138.117C44.34 137.719 44.5672 137.41 44.8513 137.188C45.1382 136.964 45.4507 136.807 45.7888 136.719C46.1297 136.628 46.465 136.583 46.7945 136.583C47.0047 136.583 47.2462 136.609 47.5189 136.66C47.7945 136.708 48.0601 136.809 48.3158 136.962C48.5743 137.116 48.7888 137.347 48.9593 137.657C49.1297 137.966 49.215 138.381 49.215 138.901V143.214H48.2093V142.327H48.1581C48.09 142.469 47.9763 142.621 47.8172 142.783C47.6581 142.945 47.4465 143.083 47.1823 143.197C46.9181 143.31 46.5956 143.367 46.215 143.367ZM46.3684 142.464C46.7661 142.464 47.1013 142.385 47.374 142.229C47.6496 142.073 47.857 141.871 47.9962 141.624C48.1382 141.377 48.2093 141.117 48.2093 140.844V139.924C48.1667 139.975 48.0729 140.022 47.928 140.064C47.786 140.104 47.6212 140.14 47.4337 140.171C47.249 140.199 47.0686 140.225 46.8925 140.248C46.7192 140.268 46.5786 140.285 46.4706 140.299C46.2093 140.333 45.965 140.388 45.7377 140.465C45.5132 140.539 45.3314 140.651 45.1922 140.802C45.0559 140.949 44.9877 141.151 44.9877 141.407C44.9877 141.756 45.1169 142.02 45.3755 142.199C45.6368 142.376 45.9678 142.464 46.3684 142.464ZM52.0562 139.276V143.214H51.0505V136.668H52.0221V137.691H52.1074C52.2608 137.359 52.4937 137.091 52.8062 136.89C53.1187 136.685 53.5221 136.583 54.0164 136.583C54.4596 136.583 54.8474 136.674 55.1798 136.856C55.5122 137.035 55.7707 137.307 55.9554 137.674C56.14 138.037 56.2324 138.498 56.2324 139.055V143.214H55.2267V139.123C55.2267 138.609 55.0931 138.208 54.8261 137.921C54.5591 137.631 54.1926 137.486 53.7267 137.486C53.4056 137.486 53.1187 137.556 52.8659 137.695C52.6159 137.834 52.4184 138.037 52.2735 138.305C52.1287 138.572 52.0562 138.895 52.0562 139.276Z" fill="#808D9E"/>
<path opacity="0.7" d="M4.73027 7.81445V6.77445H6.81027V14.0645H5.66027V7.81445H4.73027ZM8.37637 10.3245C8.37637 9.17112 8.5697 8.27112 8.95637 7.62445C9.3497 6.97112 10.023 6.64445 10.9764 6.64445C11.9297 6.64445 12.5997 6.97112 12.9864 7.62445C13.3797 8.27112 13.5764 9.17112 13.5764 10.3245C13.5764 11.4911 13.3797 12.4045 12.9864 13.0645C12.5997 13.7178 11.9297 14.0445 10.9764 14.0445C10.023 14.0445 9.3497 13.7178 8.95637 13.0645C8.5697 12.4045 8.37637 11.4911 8.37637 10.3245ZM12.4564 10.3245C12.4564 9.78445 12.4197 9.32779 12.3464 8.95445C12.2797 8.58112 12.1397 8.27779 11.9264 8.04445C11.713 7.80445 11.3964 7.68445 10.9764 7.68445C10.5564 7.68445 10.2397 7.80445 10.0264 8.04445C9.81303 8.27779 9.6697 8.58112 9.59637 8.95445C9.5297 9.32779 9.49637 9.78445 9.49637 10.3245C9.49637 10.8845 9.5297 11.3545 9.59637 11.7345C9.66303 12.1145 9.80303 12.4211 10.0164 12.6545C10.2364 12.8878 10.5564 13.0045 10.9764 13.0045C11.3964 13.0045 11.713 12.8878 11.9264 12.6545C12.1464 12.4211 12.2897 12.1145 12.3564 11.7345C12.423 11.3545 12.4564 10.8845 12.4564 10.3245ZM17.1126 11.3145L19.6526 14.0645H18.1126L16.0726 11.6945V14.0645H14.9326V6.66445H16.0726V10.9645L18.0726 8.55445H19.6526L17.1126 11.3145Z" fill="#1D1E25"/>
<path opacity="0.7" d="M11.3381 61.7545H7.98809V63.7445C8.12809 63.5578 8.33475 63.4011 8.60809 63.2745C8.88809 63.1478 9.18475 63.0845 9.49809 63.0845C10.0581 63.0845 10.5114 63.2045 10.8581 63.4445C11.2114 63.6845 11.4614 63.9878 11.6081 64.3545C11.7614 64.7211 11.8381 65.1078 11.8381 65.5145C11.8381 66.0078 11.7414 66.4478 11.5481 66.8345C11.3614 67.2145 11.0781 67.5145 10.6981 67.7345C10.3248 67.9545 9.86475 68.0645 9.31809 68.0645C8.59142 68.0645 8.00809 67.8845 7.56809 67.5245C7.12809 67.1645 6.86475 66.6878 6.77809 66.0945H7.88809C7.96142 66.4078 8.12475 66.6578 8.37809 66.8445C8.63142 67.0245 8.94809 67.1145 9.32809 67.1145C9.80142 67.1145 10.1548 66.9711 10.3881 66.6845C10.6281 66.3978 10.7481 66.0178 10.7481 65.5445C10.7481 65.0645 10.6281 64.6978 10.3881 64.4445C10.1481 64.1845 9.79475 64.0545 9.32809 64.0545C9.00142 64.0545 8.72475 64.1378 8.49809 64.3045C8.27809 64.4645 8.11809 64.6845 8.01809 64.9645H6.93809V60.7545H11.3381V61.7545ZM15.3548 65.3145L17.8948 68.0645H16.3548L14.3148 65.6945V68.0645H13.1748V60.6645H14.3148V64.9645L16.3148 62.5545H17.8948L15.3548 65.3145Z" fill="#1D1E25"/>
<path opacity="0.7" d="M9.39688 118.324C9.39688 117.171 9.59021 116.271 9.97688 115.624C10.3702 114.971 11.0435 114.644 11.9969 114.644C12.9502 114.644 13.6202 114.971 14.0069 115.624C14.4002 116.271 14.5969 117.171 14.5969 118.324C14.5969 119.491 14.4002 120.404 14.0069 121.064C13.6202 121.718 12.9502 122.044 11.9969 122.044C11.0435 122.044 10.3702 121.718 9.97688 121.064C9.59021 120.404 9.39688 119.491 9.39688 118.324ZM13.4769 118.324C13.4769 117.784 13.4402 117.328 13.3669 116.954C13.3002 116.581 13.1602 116.278 12.9469 116.044C12.7335 115.804 12.4169 115.684 11.9969 115.684C11.5769 115.684 11.2602 115.804 11.0469 116.044C10.8335 116.278 10.6902 116.581 10.6169 116.954C10.5502 117.328 10.5169 117.784 10.5169 118.324C10.5169 118.884 10.5502 119.354 10.6169 119.734C10.6835 120.114 10.8235 120.421 11.0369 120.654C11.2569 120.888 11.5769 121.004 11.9969 121.004C12.4169 121.004 12.7335 120.888 12.9469 120.654C13.1669 120.421 13.3102 120.114 13.3769 119.734C13.4435 119.354 13.4769 118.884 13.4769 118.324Z" fill="#1D1E25"/>
<path d="M150.619 134.486H151.88L154.846 141.731H154.948L157.914 134.486H159.175V143.214H158.187V136.583H158.102L155.374 143.214H154.42L151.692 136.583H151.607V143.214H150.619V134.486ZM163.084 143.367C162.669 143.367 162.293 143.289 161.955 143.133C161.617 142.974 161.348 142.745 161.149 142.447C160.951 142.145 160.851 141.782 160.851 141.356C160.851 140.981 160.925 140.677 161.073 140.444C161.22 140.208 161.418 140.023 161.665 139.89C161.912 139.756 162.185 139.657 162.483 139.591C162.784 139.523 163.087 139.469 163.391 139.43C163.789 139.378 164.111 139.34 164.358 139.314C164.608 139.286 164.79 139.239 164.904 139.174C165.02 139.109 165.078 138.995 165.078 138.833V138.799C165.078 138.378 164.963 138.052 164.733 137.819C164.506 137.586 164.161 137.469 163.698 137.469C163.218 137.469 162.841 137.574 162.568 137.785C162.296 137.995 162.104 138.219 161.993 138.458L161.039 138.117C161.209 137.719 161.436 137.41 161.72 137.188C162.007 136.964 162.32 136.807 162.658 136.719C162.999 136.628 163.334 136.583 163.664 136.583C163.874 136.583 164.115 136.609 164.388 136.66C164.664 136.708 164.929 136.809 165.185 136.962C165.443 137.116 165.658 137.347 165.828 137.657C165.999 137.966 166.084 138.381 166.084 138.901V143.214H165.078V142.327H165.027C164.959 142.469 164.845 142.621 164.686 142.783C164.527 142.945 164.316 143.083 164.051 143.197C163.787 143.31 163.465 143.367 163.084 143.367ZM163.238 142.464C163.635 142.464 163.97 142.385 164.243 142.229C164.519 142.073 164.726 141.871 164.865 141.624C165.007 141.377 165.078 141.117 165.078 140.844V139.924C165.036 139.975 164.942 140.022 164.797 140.064C164.655 140.104 164.49 140.14 164.303 140.171C164.118 140.199 163.938 140.225 163.762 140.248C163.588 140.268 163.448 140.285 163.34 140.299C163.078 140.333 162.834 140.388 162.607 140.465C162.382 140.539 162.201 140.651 162.061 140.802C161.925 140.949 161.857 141.151 161.857 141.407C161.857 141.756 161.986 142.02 162.245 142.199C162.506 142.376 162.837 142.464 163.238 142.464ZM167.92 143.214V136.668H168.891V137.657H168.959C169.079 137.333 169.295 137.07 169.607 136.868C169.92 136.667 170.272 136.566 170.664 136.566C170.738 136.566 170.83 136.567 170.941 136.57C171.052 136.573 171.136 136.577 171.192 136.583V137.606C171.158 137.597 171.08 137.584 170.958 137.567C170.839 137.547 170.712 137.537 170.579 137.537C170.261 137.537 169.977 137.604 169.727 137.738C169.479 137.868 169.283 138.05 169.138 138.283C168.996 138.513 168.925 138.776 168.925 139.072V143.214H167.92Z" fill="#808D9E"/>
<path d="M94.6191 143.214V134.486H99.8521V135.424H95.6759V138.373H99.46V139.31H95.6759V143.214H94.6191ZM103.79 143.35C103.159 143.35 102.615 143.211 102.157 142.932C101.703 142.651 101.352 142.259 101.105 141.756C100.861 141.251 100.738 140.662 100.738 139.992C100.738 139.322 100.861 138.731 101.105 138.219C101.352 137.705 101.696 137.305 102.136 137.018C102.579 136.728 103.096 136.583 103.687 136.583C104.028 136.583 104.365 136.64 104.697 136.753C105.03 136.867 105.332 137.052 105.605 137.307C105.878 137.56 106.095 137.895 106.257 138.313C106.419 138.731 106.5 139.245 106.5 139.856V140.282H101.454V139.412H105.477C105.477 139.043 105.403 138.714 105.255 138.424C105.111 138.134 104.903 137.905 104.633 137.738C104.366 137.57 104.051 137.486 103.687 137.486C103.287 137.486 102.94 137.586 102.648 137.785C102.358 137.981 102.135 138.236 101.978 138.552C101.822 138.867 101.744 139.205 101.744 139.566V140.145C101.744 140.64 101.829 141.059 102 141.403C102.173 141.743 102.413 142.003 102.72 142.182C103.027 142.359 103.383 142.447 103.79 142.447C104.054 142.447 104.292 142.41 104.505 142.336C104.721 142.259 104.907 142.145 105.064 141.995C105.22 141.841 105.341 141.651 105.426 141.424L106.398 141.697C106.295 142.026 106.123 142.316 105.882 142.566C105.64 142.813 105.342 143.006 104.987 143.145C104.632 143.282 104.233 143.35 103.79 143.35ZM108.166 143.214V134.486H109.172V137.708H109.257C109.331 137.594 109.433 137.449 109.564 137.273C109.697 137.094 109.888 136.935 110.135 136.796C110.385 136.654 110.723 136.583 111.149 136.583C111.7 136.583 112.186 136.721 112.606 136.996C113.027 137.272 113.355 137.662 113.591 138.168C113.827 138.674 113.944 139.27 113.944 139.958C113.944 140.651 113.827 141.252 113.591 141.76C113.355 142.266 113.028 142.658 112.611 142.937C112.193 143.212 111.711 143.35 111.166 143.35C110.746 143.35 110.409 143.28 110.156 143.141C109.903 142.999 109.709 142.839 109.572 142.66C109.436 142.478 109.331 142.327 109.257 142.208H109.138V143.214H108.166ZM109.155 139.941C109.155 140.435 109.227 140.871 109.372 141.249C109.517 141.624 109.728 141.918 110.007 142.131C110.285 142.341 110.626 142.447 111.03 142.447C111.45 142.447 111.801 142.336 112.082 142.114C112.366 141.89 112.579 141.589 112.721 141.211C112.866 140.83 112.939 140.407 112.939 139.941C112.939 139.481 112.868 139.066 112.726 138.697C112.586 138.324 112.375 138.03 112.091 137.814C111.809 137.596 111.456 137.486 111.03 137.486C110.621 137.486 110.277 137.59 109.998 137.797C109.72 138.002 109.51 138.289 109.368 138.658C109.226 139.025 109.155 139.452 109.155 139.941Z" fill="#808D9E"/>
<rect x="40.75" y="17.5645" width="15" height="52.5351" rx="7.5" fill="#EB6E46" stroke="white" stroke-width="3"/>
<rect x="40.75" y="32.3608" width="15" height="52.5351" rx="7.5" fill="#20BFF7" stroke="white" stroke-width="3"/>
<rect x="40.75" y="69.6729" width="15" height="52.5351" rx="7.5" fill="#2280FF" stroke="white" stroke-width="3"/>
<rect x="96.75" y="51.6599" width="15" height="35.2918" rx="7.5" fill="#EB6E46" stroke="white" stroke-width="3"/>
<rect x="96.75" y="76.106" width="15" height="35.2918" rx="7.5" fill="#20BFF7" stroke="white" stroke-width="3"/>
<rect x="96.75" y="101.838" width="15" height="20.3694" rx="7.5" fill="#2280FF" stroke="white" stroke-width="3"/>
<rect x="152.75" y="56.1633" width="15" height="33.7243" rx="7.5" fill="#EB6E46" stroke="white" stroke-width="3"/>
<rect x="152.75" y="65.3413" width="15" height="33.7243" rx="7.5" fill="#20BFF7" stroke="white" stroke-width="3"/>
<rect x="152.75" y="88.4846" width="15" height="33.7243" rx="7.5" fill="#2280FF" stroke="white" stroke-width="3"/>
</g>
<defs>
<filter id="filter0_d_1_2641" x="0.730225" y="6.64453" width="178.971" height="144.722" filterUnits="userSpaceOnUse" color-interpolation-filters="sRGB">
<feFlood flood-opacity="0" result="BackgroundImageFix"/>
<feColorMatrix in="SourceAlpha" type="matrix" values="0 0 0 0 0 0 0 0 0 0 0 0 0 0 0 0 0 0 127 0" result="hardAlpha"/>
<feOffset dy="4"/>
<feGaussianBlur stdDeviation="2"/>
<feComposite in2="hardAlpha" operator="out"/>
<feColorMatrix type="matrix" values="0 0 0 0 0 0 0 0 0 0 0 0 0 0 0 0 0 0 0.25 0"/>
<feBlend mode="normal" in2="BackgroundImageFix" result="effect1_dropShadow_1_2641"/>
<feBlend mode="normal" in="SourceGraphic" in2="effect1_dropShadow_1_2641" result="shape"/>
</filter>
</defs>
</svg>
